<svg xmlns="http://www.w3.org/2000/svg" viewBox="0 0 800 440" fill="none">
  <rect width="800" height="440" fill="#E8F0FE"/>
  <ellipse cx="400" cy="400" rx="280" ry="30" fill="#C2E7FF" fill-opacity="0.5"/>
  <rect x="80" y="60" width="220" height="280" rx="20" fill="#fff" stroke="#DADCE0" stroke-width="2"/>
  <rect x="100" y="88" width="60" height="8" rx="4" fill="#EA4335"/>
  <rect x="100" y="108" width="180" height="10" rx="5" fill="#202124"/>
  <rect x="100" y="128" width="140" height="7" rx="3.5" fill="#5F6368"/>
  <rect x="100" y="160" width="180" height="6" rx="3" fill="#E8EAED"/>
  <rect x="100" y="176" width="160" height="6" rx="3" fill="#E8EAED"/>
  <rect x="100" y="192" width="170" height="6" rx="3" fill="#E8EAED"/>
  <rect x="100" y="220" width="100" height="32" rx="16" fill="#1a73e8"/>
  <text x="118" y="241" fill="#fff" font-family="system-ui,sans-serif" font-size="12" font-weight="600">Schedule</text>
  <path d="M310 200 H380" stroke="#4285F4" stroke-width="3" stroke-dasharray="8 6"/>
  <polygon points="380,195 392,200 380,205" fill="#4285F4"/>
  <rect x="400" y="100" width="200" height="240" rx="20" fill="#fff" stroke="#34A853" stroke-width="2"/>
  <rect x="420" y="128" width="80" height="12" rx="6" fill="#34A853"/>
  <text x="420" y="160" fill="#188038" font-family="system-ui,sans-serif" font-size="14" font-weight="700">Thu 3:30 PM</text>
  <rect x="420" y="176" width="160" height="8" rx="4" fill="#202124"/>
  <rect x="420" y="194" width="120" height="6" rx="3" fill="#5F6368"/>
  <rect x="420" y="220" width="160" height="48" rx="10" fill="#E6F4EA"/>
  <circle cx="444" cy="244" r="12" fill="#FBBC04"/>
  <rect x="464" y="236" width="90" height="6" rx="3" fill="#34A853"/>
  <rect x="464" y="248" width="60" height="5" rx="2.5" fill="#81C995"/>
  <path d="M610 220 H680" stroke="#FBBC04" stroke-width="3" stroke-dasharray="8 6"/>
  <polygon points="680,215 692,220 680,225" fill="#FBBC04"/>
  <rect x="560" y="140" width="180" height="200" rx="20" fill="#fff" stroke="#FBBC04" stroke-width="2"/>
  <circle cx="650" cy="200" r="36" fill="#FEF7E0" stroke="#FBBC04" stroke-width="2"/>
  <path d="M638 200 L648 212 L668 188" stroke="#34A853" stroke-width="4" stroke-linecap="round" stroke-linejoin="round"/>
  <text x="590" y="260" fill="#E37400" font-family="system-ui,sans-serif" font-size="13" font-weight="700">Invite sent</text>
  <rect x="590" y="276" width="120" height="6" rx="3" fill="#DADCE0"/>
  <circle cx="120" cy="380" r="24" fill="#4285F4" fill-opacity="0.2"/>
  <circle cx="680" cy="60" r="18" fill="#EA4335" fill-opacity="0.2"/>
  <circle cx="400" cy="40" r="14" fill="#34A853" fill-opacity="0.25"/>
</svg>
