<svg xmlns="http://www.w3.org/2000/svg" viewBox="0 0 720 420" fill="none">
  <rect width="720" height="420" rx="24" fill="#F8F9FA"/>
  <rect x="24" y="24" width="672" height="372" rx="16" fill="#fff" stroke="#E8EAED" stroke-width="2"/>
  <rect x="24" y="24" width="672" height="44" rx="16" fill="#F8F9FA"/>
  <circle cx="52" cy="46" r="6" fill="#EA4335"/>
  <circle cx="72" cy="46" r="6" fill="#FBBC04"/>
  <circle cx="92" cy="46" r="6" fill="#34A853"/>
  <rect x="300" y="36" width="120" height="20" rx="10" fill="#E8EAED"/>
  <rect x="40" y="84" width="200" height="296" rx="12" fill="#E8F0FE" stroke="#A8C7FA" stroke-width="1.5"/>
  <text x="60" y="112" fill="#1a73e8" font-family="system-ui,sans-serif" font-size="13" font-weight="700">Inbox</text>
  <rect x="52" y="124" width="176" height="44" rx="8" fill="#fff" stroke="#DADCE0"/>
  <circle cx="72" cy="146" r="10" fill="#FBBC04"/>
  <rect x="90" y="138" width="100" height="6" rx="3" fill="#DADCE0"/>
  <rect x="90" y="150" width="70" height="5" rx="2.5" fill="#E8EAED"/>
  <rect x="52" y="176" width="176" height="44" rx="8" fill="#fff" stroke="#34A853" stroke-width="2"/>
  <circle cx="72" cy="198" r="10" fill="#4285F4"/>
  <rect x="90" y="190" width="110" height="6" rx="3" fill="#34A853" fill-opacity="0.4"/>
  <rect x="90" y="202" width="80" height="5" rx="2.5" fill="#E8EAED"/>
  <rect x="52" y="228" width="176" height="44" rx="8" fill="#fff" stroke="#DADCE0"/>
  <rect x="52" y="280" width="176" height="44" rx="8" fill="#fff" stroke="#DADCE0"/>
  <rect x="256" y="84" width="208" height="296" rx="12" fill="#E6F4EA" stroke="#81C995" stroke-width="1.5"/>
  <text x="276" y="112" fill="#188038" font-family="system-ui,sans-serif" font-size="13" font-weight="700">Calendar</text>
  <rect x="268" y="128" width="184" height="56" rx="8" fill="#fff"/>
  <rect x="280" y="140" width="40" height="32" rx="6" fill="#4285F4"/>
  <text x="292" y="160" fill="#fff" font-size="11" font-weight="700">9</text>
  <rect x="332" y="144" width="100" height="6" rx="3" fill="#202124"/>
  <rect x="332" y="158" width="70" height="5" rx="2.5" fill="#5F6368"/>
  <rect x="268" y="196" width="184" height="56" rx="8" fill="#fff" stroke="#FBBC04" stroke-width="2"/>
  <rect x="280" y="208" width="40" height="32" rx="6" fill="#FBBC04"/>
  <text x="290" y="228" fill="#fff" font-size="11" font-weight="700">11</text>
  <rect x="332" y="212" width="90" height="6" rx="3" fill="#202124"/>
  <rect x="268" y="264" width="184" height="56" rx="8" fill="#fff"/>
  <rect x="496" y="84" width="176" height="296" rx="12" fill="#FEF7E0" stroke="#FDD663" stroke-width="1.5"/>
  <text x="516" y="112" fill="#E37400" font-family="system-ui,sans-serif" font-size="13" font-weight="700">Agent</text>
  <rect x="508" y="128" width="152" height="72" rx="10" fill="#fff" stroke="#E8EAED"/>
  <rect x="520" y="140" width="80" height="6" rx="3" fill="#4285F4" fill-opacity="0.5"/>
  <rect x="520" y="154" width="120" height="5" rx="2.5" fill="#DADCE0"/>
  <rect x="520" y="166" width="100" height="5" rx="2.5" fill="#DADCE0"/>
  <rect x="508" y="212" width="152" height="40" rx="20" fill="#1a73e8"/>
  <text x="548" y="237" fill="#fff" font-family="system-ui,sans-serif" font-size="11" font-weight="600">Draft reply</text>
  <circle cx="640" cy="360" r="28" fill="#34A853" fill-opacity="0.2"/>
  <circle cx="80" cy="360" r="20" fill="#4285F4" fill-opacity="0.15"/>
</svg>
