<svg xmlns="http://www.w3.org/2000/svg" viewBox="0 0 800 480" fill="none">
  <rect width="800" height="480" fill="#E8F0FE"/>
  <ellipse cx="120" cy="380" rx="140" ry="50" fill="#fff" fill-opacity="0.7"/>
  <ellipse cx="680" cy="400" rx="160" ry="55" fill="#fff" fill-opacity="0.65"/>
  <ellipse cx="400" cy="420" rx="200" ry="40" fill="#C2E7FF" fill-opacity="0.4"/>
  <!-- floating icons left -->
  <circle cx="100" cy="120" r="36" fill="#34A853"/>
  <path d="M88 118h24v4H88zM100 106v28" stroke="#fff" stroke-width="4" stroke-linecap="round"/>
  <circle cx="160" cy="200" r="28" fill="#FBBC04"/>
  <rect x="148" y="188" width="24" height="18" rx="4" fill="#fff"/>
  <circle cx="154" cy="196" r="3" fill="#FBBC04"/>
  <circle cx="166" cy="196" r="3" fill="#FBBC04"/>
  <rect x="70" cy="260" width="52" height="40" rx="10" fill="#4285F4"/>
  <circle cx="86" cy="276" r="4" fill="#fff"/>
  <circle cx="98" cy="276" r="4" fill="#fff"/>
  <circle cx="110" cy="276" r="4" fill="#fff"/>
  <!-- floating icons right -->
  <rect x="620" y="90" width="48" height="38" rx="8" fill="#FBBC04"/>
  <path d="M628 108h32M644 96v24" stroke="#fff" stroke-width="3" stroke-linecap="round"/>
  <circle cx="700" cy="170" r="32" fill="#4285F4"/>
  <circle cx="700" cy="166" r="10" fill="none" stroke="#fff" stroke-width="3"/>
  <path d="M688 182c4-8 8-10 12-10s8 2 12 10" stroke="#fff" stroke-width="3" stroke-linecap="round"/>
  <circle cx="650" cy="280" r="34" fill="#EA4335"/>
  <circle cx="650" cy="272" r="10" fill="#fff"/>
  <path d="M638 292c6-6 12-8 12-8s6 2 12 8" stroke="#fff" stroke-width="3" stroke-linecap="round"/>
  <!-- phone frame -->
  <rect x="310" y="80" width="180" height="300" rx="24" fill="#fff" stroke="#DADCE0" stroke-width="3"/>
  <rect x="330" y="110" width="140" height="90" rx="12" fill="#E8F0FE"/>
  <circle cx="370" cy="150" r="16" fill="#FBBC04"/>
  <path d="M358 168c6-10 14-14 20-14s14 4 20 14" stroke="#202124" stroke-width="3" stroke-linecap="round"/>
  <rect x="330" y="220" width="60" height="8" rx="4" fill="#34A853" fill-opacity="0.5"/>
  <rect x="330" y="240" width="100" height="8" rx="4" fill="#DADCE0"/>
  <rect x="330" y="260" width="80" height="8" rx="4" fill="#DADCE0"/>
  <!-- character -->
  <ellipse cx="400" cy="400" rx="70" ry="12" fill="#202124" fill-opacity="0.08"/>
  <path d="M340 320c0-40 26-72 60-72s60 32 60 72v60H340V320z" fill="#4285F4"/>
  <circle cx="400" cy="268" r="44" fill="#F9AB00"/>
  <circle cx="400" cy="255" r="36" fill="#8D5524"/>
  <path d="M364 248c8-12 20-18 36-18s28 6 36 18" fill="#6B3E1A"/>
  <circle cx="386" cy="258" r="4" fill="#202124"/>
  <circle cx="414" cy="258" r="4" fill="#202124"/>
  <path d="M388 278c4 6 8 8 12 8s8-2 12-8" stroke="#202124" stroke-width="2.5" stroke-linecap="round"/>
  <path d="M300 300c20-30 50-40 100-40s80 10 100 40" stroke="#4285F4" stroke-width="18" stroke-linecap="round"/>
  <rect x="270" y="270" width="44" height="72" rx="10" fill="#34A853"/>
  <circle cx="292" cy="300" r="14" fill="#fff"/>
  <rect x="486" y="265" width="50" height="8" rx="4" fill="#4285F4"/>
  <ellipse cx="512" cy="250" rx="8" ry="12" fill="#4285F4"/>
  <!-- dog -->
  <ellipse cx="355" cy="375" rx="22" ry="14" fill="#9AA0A6"/>
  <circle cx="340" cy="362" r="12" fill="#9AA0A6"/>
  <circle cx="336" cy="358" r="3" fill="#202124"/>
</svg>
